<svg xmlns="http://www.w3.org/2000/svg" width="156" height="30" viewBox="0 0 156 30" fill="none"><g clip-path="url(#clip0_1_154)"><path d="M12.9539 0L0 7.47712V22.4314L12.9539 29.9085L25.9079 22.4314V7.47712L12.9539 0ZM22.6694 20.5554L19.4309 22.4246V14.9587L12.9539 18.6973L6.47696 14.9587V22.4291L3.23848 20.5598V9.34641L12.9539 14.9542L22.6694 9.34641V20.5554Z" fill="#FF4C00"></path><path d="M43.9656 22.3864V14.3656L39.8978 18.8096L35.7177 14.3274V22.3864H32.3871V7.00756L39.9563 14.8015L47.3165 6.95139V22.3864H43.9679H43.9656Z" fill="#E4E4E4"></path><path d="M57.8387 22.6336C53.2226 22.6336 50.0223 19.3241 50.0223 14.9924C50.0223 10.6607 53.2204 7.36928 57.8387 7.36928C62.4571 7.36928 65.6349 10.6607 65.6349 14.9924C65.6349 19.3241 62.5695 22.6336 57.8387 22.6336ZM57.8387 10.2631C55.0565 10.2631 53.335 12.402 53.335 14.9924C53.335 17.5829 55.0565 19.778 57.8387 19.778C60.621 19.778 62.3223 17.6031 62.3223 14.9924C62.3223 12.3817 60.6772 10.2631 57.8387 10.2631Z" fill="#E4E4E4"></path><path d="M73.3749 22.3864H68.343V7.51981H72.3928C77.5393 7.51981 80.7935 9.71487 80.7935 15.2194C80.7935 18.6996 78.5416 22.3887 73.3749 22.3887V22.3864ZM72.3928 10.2249H71.6736V19.5511H72.8086C75.6852 19.5511 77.4831 17.7919 77.4831 14.9924C77.4831 12.193 75.9504 10.2249 72.3928 10.2249Z" fill="#E4E4E4"></path><path d="M89.4617 22.5954C85.1288 22.5954 83.3511 19.9285 83.3511 16.6191V7.76471H86.6817V16.3517C86.6817 18.6209 87.4773 19.6432 89.4819 19.6432C91.4866 19.6432 92.1136 18.6029 92.1136 16.3517V7.76471H95.4443V16.6191C95.4443 19.76 93.8171 22.5954 89.464 22.5954H89.4617Z" fill="#E4E4E4"></path><path d="M99.9098 22.3864V7.51981H103.24V19.569H108.52V22.3864H99.9098Z" fill="#E4E4E4"></path><path d="M119.909 22.3864L118.379 19.0006H113.895L112.363 22.3864H108.825L116.109 6.83681L123.451 22.3864H119.912H119.909ZM116.033 13.8556L114.803 16.5989H117.397L116.035 13.8556H116.033Z" fill="#E4E4E4"></path><path d="M133.688 22.3864L129.108 15.4261V22.3864H125.777V7.51981H130.753C133.895 7.51981 136.241 8.93975 136.241 11.9279C136.241 14.3679 134.729 15.6552 133.158 15.9945L137.906 22.3887H133.688V22.3864ZM130.641 10.2249H129.108V13.9882H130.659C132.438 13.9882 132.892 12.8917 132.892 11.9638C132.892 11.0359 132.286 10.2226 130.641 10.2226V10.2249Z" fill="#E4E4E4"></path><path d="M139.821 22.3864V7.51981H143.149V22.3887H139.821V22.3864Z" fill="#E4E4E4"></path><path d="M150.739 22.5392C149.265 22.5392 147.411 22.2741 145.516 20.8182L147.352 18.3221C148.26 19.0208 149.51 19.8162 150.91 19.8162C151.932 19.8162 152.651 19.4005 152.651 18.3221C152.651 17.6031 152.045 17.1111 151.573 16.8662L148.959 15.5047C147.125 14.5386 145.952 13.2714 145.952 11.4179C145.952 8.93975 148.109 7.27492 150.966 7.27492C152.499 7.27492 154.146 7.5962 155.564 8.63644L153.861 11.0382C152.991 10.281 151.836 9.93955 150.966 9.93955C149.982 9.93955 149.262 10.3934 149.262 11.2831C149.262 12.1728 149.773 12.5121 150.55 12.9097L152.593 13.9297C154.353 14.8015 155.998 16.0102 155.998 18.1289C155.998 20.6452 154.256 22.537 150.737 22.537L150.739 22.5392Z" fill="#E4E4E4"></path></g><defs><clipPath id="clip0_1_154"><rect width="156" height="29.9063" fill="white"></rect></clipPath></defs></svg>